<svg width="282" height="92" viewBox="0 0 282 92" fill="none" xmlns="http://www.w3.org/2000/svg">
<path d="M125.367 8.804H128.919V19.682H142.498V8.804H146.05V35H142.498V23.012H128.919V35H125.367V8.804ZM152.2 17.462H155.53V35H152.2V17.462ZM151.423 11.172C151.423 10.506 151.657 9.93867 152.126 9.47C152.619 8.97667 153.199 8.73 153.865 8.73C154.531 8.73 155.098 8.97667 155.567 9.47C156.06 9.93867 156.307 10.506 156.307 11.172C156.307 11.838 156.06 12.4177 155.567 12.911C155.098 13.3797 154.531 13.614 153.865 13.614C153.199 13.614 152.619 13.3797 152.126 12.911C151.657 12.4177 151.423 11.838 151.423 11.172ZM178.404 34.852C178.404 36.184 178.17 37.3927 177.701 38.478C177.257 39.588 176.616 40.5377 175.777 41.327C174.939 42.141 173.927 42.77 172.743 43.214C171.559 43.658 170.252 43.88 168.821 43.88C167.144 43.88 165.602 43.6457 164.196 43.177C162.815 42.7083 161.495 41.8943 160.237 40.735L162.494 37.923C163.358 38.8603 164.295 39.5633 165.306 40.032C166.318 40.5253 167.465 40.772 168.747 40.772C169.981 40.772 171.004 40.587 171.818 40.217C172.632 39.8717 173.274 39.4153 173.742 38.848C174.236 38.2807 174.581 37.627 174.778 36.887C174.976 36.1717 175.074 35.444 175.074 34.704V32.114H174.963C174.322 33.1747 173.446 33.964 172.336 34.482C171.251 34.9753 170.104 35.222 168.895 35.222C167.613 35.222 166.416 35 165.306 34.556C164.221 34.0873 163.284 33.4583 162.494 32.669C161.705 31.855 161.088 30.9053 160.644 29.82C160.2 28.71 159.978 27.5137 159.978 26.231C159.978 24.9483 160.188 23.752 160.607 22.642C161.027 21.5073 161.619 20.5207 162.383 19.682C163.173 18.8433 164.11 18.1897 165.195 17.721C166.305 17.2523 167.539 17.018 168.895 17.018C170.079 17.018 171.226 17.277 172.336 17.795C173.471 18.313 174.359 19.0407 175 19.978H175.074V17.462H178.404V34.852ZM169.302 20.126C168.414 20.126 167.613 20.2863 166.897 20.607C166.182 20.903 165.578 21.3223 165.084 21.865C164.591 22.383 164.209 23.0243 163.937 23.789C163.666 24.529 163.53 25.343 163.53 26.231C163.53 28.007 164.048 29.4377 165.084 30.523C166.12 31.5837 167.526 32.114 169.302 32.114C171.078 32.114 172.484 31.5837 173.52 30.523C174.556 29.4377 175.074 28.007 175.074 26.231C175.074 25.343 174.939 24.529 174.667 23.789C174.396 23.0243 174.014 22.383 173.52 21.865C173.027 21.3223 172.423 20.903 171.707 20.607C170.992 20.2863 170.19 20.126 169.302 20.126ZM183.449 7.028H186.779V20.163H186.853C187.272 19.2257 188 18.4733 189.036 17.906C190.072 17.314 191.268 17.018 192.625 17.018C193.463 17.018 194.265 17.1537 195.03 17.425C195.819 17.6717 196.497 18.0663 197.065 18.609C197.657 19.1517 198.125 19.8547 198.471 20.718C198.816 21.5567 198.989 22.5557 198.989 23.715V35H195.659V24.64C195.659 23.826 195.548 23.1353 195.326 22.568C195.104 21.976 194.808 21.5073 194.438 21.162C194.068 20.792 193.636 20.533 193.143 20.385C192.674 20.2123 192.181 20.126 191.663 20.126C190.972 20.126 190.331 20.237 189.739 20.459C189.147 20.681 188.629 21.0387 188.185 21.532C187.741 22.0007 187.395 22.605 187.149 23.345C186.902 24.085 186.779 24.9607 186.779 25.972V35H183.449V7.028ZM206.524 27.452C206.524 28.2167 206.685 28.9197 207.005 29.561C207.351 30.1777 207.795 30.708 208.337 31.152C208.88 31.596 209.509 31.9413 210.224 32.188C210.94 32.4347 211.68 32.558 212.444 32.558C213.48 32.558 214.381 32.3237 215.145 31.855C215.91 31.3617 216.613 30.7203 217.254 29.931L219.77 31.855C217.92 34.2477 215.33 35.444 212 35.444C210.619 35.444 209.361 35.2097 208.226 34.741C207.116 34.2723 206.167 33.631 205.377 32.817C204.613 31.9783 204.021 31.004 203.601 29.894C203.182 28.7593 202.972 27.5383 202.972 26.231C202.972 24.9237 203.194 23.715 203.638 22.605C204.107 21.4703 204.736 20.496 205.525 19.682C206.339 18.8433 207.301 18.1897 208.411 17.721C209.521 17.2523 210.73 17.018 212.037 17.018C213.591 17.018 214.899 17.2893 215.959 17.832C217.045 18.3747 217.933 19.09 218.623 19.978C219.314 20.8413 219.807 21.828 220.103 22.938C220.424 24.0233 220.584 25.1333 220.584 26.268V27.452H206.524ZM217.032 24.788C217.008 24.048 216.884 23.3697 216.662 22.753C216.465 22.1363 216.157 21.606 215.737 21.162C215.318 20.6933 214.788 20.3357 214.146 20.089C213.53 19.8177 212.802 19.682 211.963 19.682C211.149 19.682 210.397 19.8423 209.706 20.163C209.04 20.459 208.473 20.8537 208.004 21.347C207.536 21.8403 207.166 22.3953 206.894 23.012C206.648 23.604 206.524 24.196 206.524 24.788H217.032ZM224.568 17.462H227.898V20.163H227.972C228.194 19.6943 228.49 19.275 228.86 18.905C229.23 18.5103 229.637 18.1773 230.081 17.906C230.549 17.6347 231.055 17.425 231.598 17.277C232.14 17.1043 232.683 17.018 233.226 17.018C233.768 17.018 234.262 17.092 234.706 17.24L234.558 20.829C234.286 20.755 234.015 20.6933 233.744 20.644C233.472 20.5947 233.201 20.57 232.93 20.57C231.302 20.57 230.056 21.0263 229.193 21.939C228.329 22.8517 227.898 24.27 227.898 26.194V35H224.568V17.462ZM125.367 54.804H142.276V58.134H128.919V65.941H141.351V69.271H128.919V77.67H142.942V81H125.367V54.804ZM148.43 66.348H144.656V63.462H148.43V59.54C148.43 57.1967 148.874 55.4577 149.762 54.323C150.675 53.1637 152.229 52.584 154.424 52.584C154.794 52.584 155.176 52.5963 155.571 52.621C155.99 52.6457 156.434 52.7197 156.903 52.843L156.533 55.803C156.212 55.6797 155.904 55.5933 155.608 55.544C155.312 55.4947 154.991 55.47 154.646 55.47C154.029 55.47 153.536 55.5687 153.166 55.766C152.796 55.9387 152.5 56.1977 152.278 56.543C152.081 56.8883 151.945 57.3077 151.871 57.801C151.822 58.2697 151.797 58.8123 151.797 59.429V63.462H155.756V66.348H151.76V81H148.43V66.348ZM160.101 66.348H156.327V63.462H160.101V59.54C160.101 57.1967 160.545 55.4577 161.433 54.323C162.346 53.1637 163.9 52.584 166.095 52.584C166.465 52.584 166.847 52.5963 167.242 52.621C167.661 52.6457 168.105 52.7197 168.574 52.843L168.204 55.803C167.883 55.6797 167.575 55.5933 167.279 55.544C166.983 55.4947 166.662 55.47 166.317 55.47C165.7 55.47 165.207 55.5687 164.837 55.766C164.467 55.9387 164.171 56.1977 163.949 56.543C163.752 56.8883 163.616 57.3077 163.542 57.801C163.493 58.2697 163.468 58.8123 163.468 59.429V63.462H167.427V66.348H163.431V81H160.101V66.348ZM171.386 63.462H174.716V81H171.386V63.462ZM170.609 57.172C170.609 56.506 170.844 55.9387 171.312 55.47C171.806 54.9767 172.385 54.73 173.051 54.73C173.717 54.73 174.285 54.9767 174.753 55.47C175.247 55.9387 175.493 56.506 175.493 57.172C175.493 57.838 175.247 58.4177 174.753 58.911C174.285 59.3797 173.717 59.614 173.051 59.614C172.385 59.614 171.806 59.3797 171.312 58.911C170.844 58.4177 170.609 57.838 170.609 57.172ZM192.559 68.124C191.942 67.4827 191.289 67.0017 190.598 66.681C189.932 66.3357 189.13 66.163 188.193 66.163C187.28 66.163 186.479 66.3357 185.788 66.681C185.122 67.0017 184.555 67.458 184.086 68.05C183.642 68.6173 183.297 69.2833 183.05 70.048C182.828 70.788 182.717 71.565 182.717 72.379C182.717 73.193 182.853 73.97 183.124 74.71C183.395 75.4253 183.778 76.0543 184.271 76.597C184.764 77.1397 185.356 77.5713 186.047 77.892C186.738 78.188 187.515 78.336 188.378 78.336C189.315 78.336 190.117 78.1757 190.783 77.855C191.449 77.5097 192.066 77.0163 192.633 76.375L195.001 78.743C194.138 79.705 193.126 80.3957 191.967 80.815C190.832 81.2343 189.624 81.444 188.341 81.444C186.984 81.444 185.739 81.222 184.604 80.778C183.494 80.334 182.532 79.7173 181.718 78.928C180.904 78.114 180.275 77.152 179.831 76.042C179.387 74.9073 179.165 73.6617 179.165 72.305C179.165 70.9483 179.387 69.7027 179.831 68.568C180.275 67.4333 180.892 66.459 181.681 65.645C182.495 64.831 183.457 64.202 184.567 63.758C185.702 63.2893 186.96 63.055 188.341 63.055C189.624 63.055 190.845 63.2893 192.004 63.758C193.188 64.202 194.212 64.8927 195.075 65.83L192.559 68.124ZM198.125 63.462H201.455V81H198.125V63.462ZM197.348 57.172C197.348 56.506 197.582 55.9387 198.051 55.47C198.544 54.9767 199.124 54.73 199.79 54.73C200.456 54.73 201.023 54.9767 201.492 55.47C201.985 55.9387 202.232 56.506 202.232 57.172C202.232 57.838 201.985 58.4177 201.492 58.911C201.023 59.3797 200.456 59.614 199.79 59.614C199.124 59.614 198.544 59.3797 198.051 58.911C197.582 58.4177 197.348 57.838 197.348 57.172ZM209.27 73.452C209.27 74.2167 209.431 74.9197 209.751 75.561C210.097 76.1777 210.541 76.708 211.083 77.152C211.626 77.596 212.255 77.9413 212.97 78.188C213.686 78.4347 214.426 78.558 215.19 78.558C216.226 78.558 217.127 78.3237 217.891 77.855C218.656 77.3617 219.359 76.7203 220 75.931L222.516 77.855C220.666 80.2477 218.076 81.444 214.746 81.444C213.365 81.444 212.107 81.2097 210.972 80.741C209.862 80.2723 208.913 79.631 208.123 78.817C207.359 77.9783 206.767 77.004 206.347 75.894C205.928 74.7593 205.718 73.5383 205.718 72.231C205.718 70.9237 205.94 69.715 206.384 68.605C206.853 67.4703 207.482 66.496 208.271 65.682C209.085 64.8433 210.047 64.1897 211.157 63.721C212.267 63.2523 213.476 63.018 214.783 63.018C216.337 63.018 217.645 63.2893 218.705 63.832C219.791 64.3747 220.679 65.09 221.369 65.978C222.06 66.8413 222.553 67.828 222.849 68.938C223.17 70.0233 223.33 71.1333 223.33 72.268V73.452H209.27ZM219.778 70.788C219.754 70.048 219.63 69.3697 219.408 68.753C219.211 68.1363 218.903 67.606 218.483 67.162C218.064 66.6933 217.534 66.3357 216.892 66.089C216.276 65.8177 215.548 65.682 214.709 65.682C213.895 65.682 213.143 65.8423 212.452 66.163C211.786 66.459 211.219 66.8537 210.75 67.347C210.282 67.8403 209.912 68.3953 209.64 69.012C209.394 69.604 209.27 70.196 209.27 70.788H219.778ZM227.314 63.462H230.644V66.163H230.718C231.137 65.2257 231.865 64.4733 232.901 63.906C233.937 63.314 235.133 63.018 236.49 63.018C237.329 63.018 238.13 63.1537 238.895 63.425C239.684 63.6717 240.363 64.0663 240.93 64.609C241.522 65.1517 241.991 65.8547 242.336 66.718C242.681 67.5567 242.854 68.5557 242.854 69.715V81H239.524V70.64C239.524 69.826 239.413 69.1353 239.191 68.568C238.969 67.976 238.673 67.5073 238.303 67.162C237.933 66.792 237.501 66.533 237.008 66.385C236.539 66.2123 236.046 66.126 235.528 66.126C234.837 66.126 234.196 66.237 233.604 66.459C233.012 66.681 232.494 67.0387 232.05 67.532C231.606 68.0007 231.261 68.605 231.014 69.345C230.767 70.085 230.644 70.9607 230.644 71.972V81H227.314V63.462ZM260.416 68.124C259.8 67.4827 259.146 67.0017 258.455 66.681C257.789 66.3357 256.988 66.163 256.05 66.163C255.138 66.163 254.336 66.3357 253.645 66.681C252.979 67.0017 252.412 67.458 251.943 68.05C251.499 68.6173 251.154 69.2833 250.907 70.048C250.685 70.788 250.574 71.565 250.574 72.379C250.574 73.193 250.71 73.97 250.981 74.71C251.253 75.4253 251.635 76.0543 252.128 76.597C252.622 77.1397 253.214 77.5713 253.904 77.892C254.595 78.188 255.372 78.336 256.235 78.336C257.173 78.336 257.974 78.1757 258.64 77.855C259.306 77.5097 259.923 77.0163 260.49 76.375L262.858 78.743C261.995 79.705 260.984 80.3957 259.824 80.815C258.69 81.2343 257.481 81.444 256.198 81.444C254.842 81.444 253.596 81.222 252.461 80.778C251.351 80.334 250.389 79.7173 249.575 78.928C248.761 78.114 248.132 77.152 247.688 76.042C247.244 74.9073 247.022 73.6617 247.022 72.305C247.022 70.9483 247.244 69.7027 247.688 68.568C248.132 67.4333 248.749 66.459 249.538 65.645C250.352 64.831 251.314 64.202 252.424 63.758C253.559 63.2893 254.817 63.055 256.198 63.055C257.481 63.055 258.702 63.2893 259.861 63.758C261.045 64.202 262.069 64.8927 262.932 65.83L260.416 68.124ZM263.614 63.462H267.462L272.679 77.152H272.753L277.711 63.462H281.3L272.975 84.774C272.679 85.5387 272.371 86.2293 272.05 86.846C271.729 87.4873 271.347 88.03 270.903 88.474C270.459 88.918 269.916 89.2633 269.275 89.51C268.658 89.7567 267.894 89.88 266.981 89.88C266.488 89.88 265.982 89.843 265.464 89.769C264.971 89.7197 264.49 89.5963 264.021 89.399L264.428 86.365C265.094 86.6363 265.76 86.772 266.426 86.772C266.944 86.772 267.376 86.698 267.721 86.55C268.091 86.4267 268.399 86.2293 268.646 85.958C268.917 85.7113 269.139 85.4153 269.312 85.07C269.485 84.7247 269.657 84.33 269.83 83.886L270.903 81.111L263.614 63.462Z" fill="black"/>
<rect x="29.1331" y="23.866" width="68.9688" height="43.7342" fill="#3D544A" stroke="black" stroke-width="2"/>
<g filter="url(#filter0_d)">
<rect x="22.868" y="50.7714" width="33.0432" height="20.8694" fill="#F4F0EA"/>
<rect x="23.868" y="51.7714" width="31.0432" height="18.8694" stroke="black" stroke-width="2"/>
</g>
<path d="M98.0725 67.5708L16.5452 76.3058" stroke="black" stroke-width="1.5"/>
<path d="M96.7576 24.4619L17.4167 75.8724" stroke="black" stroke-width="1.5"/>
<path d="M29.1625 22.9249L17.1631 75.8724" stroke="black" stroke-width="1.5"/>
<line x1="26.2509" y1="22.4249" x2="35.9565" y2="22.4249" stroke="white"/>
<defs>
<filter id="filter0_d" x="19.868" y="45.7714" width="41.0432" height="28.8694" filterUnits="userSpaceOnUse" color-interpolation-filters="sRGB">
<feFlood flood-opacity="0" result="BackgroundImageFix"/>
<feColorMatrix in="SourceAlpha" type="matrix" values="0 0 0 0 0 0 0 0 0 0 0 0 0 0 0 0 0 0 127 0"/>
<feOffset dx="1" dy="-1"/>
<feGaussianBlur stdDeviation="2"/>
<feColorMatrix type="matrix" values="0 0 0 0 0 0 0 0 0 0 0 0 0 0 0 0 0 0 0.25 0"/>
<feBlend mode="normal" in2="BackgroundImageFix" result="effect1_dropShadow"/>
<feBlend mode="normal" in="SourceGraphic" in2="effect1_dropShadow" result="shape"/>
</filter>
</defs>
</svg>
